<?xml version="1.0" standalone="no"?>
<!DOCTYPE svg PUBLIC "-//W3C//DTD SVG 20010904//EN"
 "http://www.w3.org/TR/2001/REC-SVG-20010904/DTD/svg10.dtd">
<svg version="1.0" xmlns="http://www.w3.org/2000/svg"
 width="1024.000000pt" height="1024.000000pt" viewBox="0 0 1024.000000 1024.000000"
 preserveAspectRatio="xMidYMid meet">
<metadata>
Created by potrace 1.11, written by Peter Selinger 2001-2013
</metadata>
<g transform="translate(0.000000,1024.000000) scale(0.100000,-0.100000)"
fill="#000000" stroke="none">
<path d="M8922 8382 l-543 -545 -532 1 c-293 0 -537 1 -543 1 -6 1 -255 245
-553 542 -297 298 -541 538 -542 533 -2 -26 2 -2365 5 -2399 12 -191 70 -412
151 -575 47 -96 67 -133 76 -140 3 -3 12 -16 19 -30 29 -56 138 -190 220 -271
195 -192 387 -314 620 -392 133 -45 177 -55 322 -77 67 -10 410 -7 468 5 19 3
44 8 55 10 151 25 384 111 510 187 132 80 279 198 365 292 19 22 40 44 45 50
50 54 152 194 194 266 27 46 101 201 105 218 1 9 8 30 15 45 20 49 51 178 68
282 15 89 17 239 19 1323 1 672 2 1221 1 1221 -1 -1 -246 -247 -545 -547z
m-1636 -1392 c91 -51 137 -125 140 -229 3 -82 -24 -153 -77 -205 -55 -53 -116
-74 -209 -72 -164 4 -248 95 -248 269 0 119 63 215 165 250 65 23 175 17 229
-13z m1320 15 c104 -31 173 -124 179 -240 4 -89 -22 -159 -80 -212 -58 -53
-115 -72 -207 -69 -162 5 -249 99 -249 267 0 190 169 310 357 254z"/>
<path d="M1298 7835 c-1 -1 -30 -5 -64 -8 -106 -10 -197 -56 -295 -148 -216
-203 -221 -542 -12 -756 54 -55 163 -134 193 -139 3 0 23 -6 45 -12 22 -6 69
-14 105 -17 138 -12 161 -16 207 -31 115 -38 234 -131 298 -233 37 -59 72
-156 79 -216 3 -28 6 -1060 6 -2295 2 -2134 3 -2249 20 -2330 29 -133 104
-317 151 -369 9 -10 24 -31 32 -47 17 -32 126 -147 196 -207 133 -115 287
-191 471 -234 69 -16 197 -17 1664 -19 1416 -2 1594 0 1635 14 50 17 59 23
103 67 62 62 71 99 74 313 3 288 -23 379 -153 518 -47 51 -150 124 -175 124
-10 0 -18 4 -18 9 0 5 -12 11 -27 14 -16 3 -48 10 -73 16 -25 5 -175 10 -334
11 -160 0 -291 2 -293 4 -2 2 119 95 269 207 150 112 278 208 284 214 7 5 220
165 474 355 255 190 468 350 474 355 6 6 24 18 39 28 16 10 38 27 50 37 12 10
83 64 157 119 74 56 146 110 160 120 14 10 68 51 120 89 52 39 102 77 110 84
8 7 17 13 20 13 3 0 5 -565 6 -1255 1 -1237 1 -1256 21 -1300 24 -53 72 -103
128 -133 39 -21 50 -22 390 -22 348 0 350 0 398 24 26 13 63 42 82 65 69 85
65 -59 65 1904 0 974 -3 1772 -7 1772 -5 0 -38 -7 -74 -14 -36 -8 -90 -17
-120 -21 -30 -4 -57 -9 -60 -11 -3 -2 -55 -6 -115 -10 -162 -11 -317 -8 -444
10 -14 2 -52 7 -85 11 -33 4 -63 9 -67 11 -3 2 -44 11 -90 20 -45 9 -87 19
-93 23 -5 5 -25 11 -42 14 -36 7 -315 116 -323 127 -3 3 -27 16 -54 29 -182
84 -454 299 -612 484 -95 110 -198 261 -266 387 -53 100 -132 285 -142 335 -3
11 -11 38 -19 60 -7 22 -22 79 -32 127 l-18 86 -86 -4 c-90 -4 -202 -12 -286
-20 -66 -6 -106 -12 -205 -28 -150 -25 -466 -103 -640 -158 -237 -75 -521
-223 -735 -382 -185 -138 -440 -374 -547 -506 -19 -25 -56 -70 -80 -101 -25
-30 -76 -98 -113 -150 -37 -52 -70 -97 -74 -101 -3 -4 -6 334 -6 750 0 827 -3
922 -41 1082 -49 206 -149 423 -263 572 -20 25 -46 59 -58 75 -45 59 -192 201
-274 264 -153 118 -285 191 -455 248 -93 31 -95 32 -209 55 -101 21 -335 42
-347 31z"/>
</g>
</svg>
